<svg width="100%" height="100%" viewBox="0 0 400 799" fill="none" xmlns="http://www.w3.org/2000/svg">
<path d="M0 50V0L30.943 30.9429L50 50H0Z" fill="#0078B5"/>
<path d="M50 100V50L80.943 80.9429L100 100H50Z" fill="#0078B5"/>
<path d="M100 50H50V25V0L80.943 30.9429L100 50Z" fill="#0078B5"/>
<path d="M100 0V50L69.057 19.0571L50 0H100Z" fill="#F25230"/>
<path d="M50 0V50L19.057 19.0571L0 0H50Z" fill="#F35131"/>
<path d="M100 50V100L69.057 69.0571L50 50H100Z" fill="#F35131"/>
<path d="M50 50V100L19.057 69.0571L0 50H50Z" fill="#F35131"/>
<path d="M0 100V50L30.943 80.9429L50 100H0Z" fill="#0078B5"/>
<path d="M100 200C100 186.868 97.413 173.864 92.388 161.732C87.362 149.599 79.997 138.575 70.711 129.289C61.425 120.003 50.401 112.638 38.268 107.612C26.136 102.587 13.132 100 0 100V200H100Z" fill="#FDC91F"/>
<path d="M71 200C71 190.676 69.164 181.444 65.595 172.829C62.027 164.215 56.798 156.388 50.205 149.795C43.612 143.202 35.785 137.973 27.171 134.405C18.556 130.836 9.324 129 0 129V200H71Z" fill="white"/>
<path d="M43 199.5C43 193.919 41.888 188.392 39.727 183.236C37.566 178.08 34.399 173.394 30.406 169.448C26.413 165.501 21.672 162.371 16.455 160.235C11.238 158.099 5.647 157 0 157V199.5H43Z" fill="#0078B5"/>
<path d="M200 100H100V200H200V100Z" fill="#F35131"/>
<path d="M175 150C175 143.37 172.366 137.011 167.678 132.322C162.989 127.634 156.63 125 150 125C143.37 125 137.011 127.634 132.322 132.322C127.634 137.011 125 143.37 125 150H150H175Z" fill="white"/>
<path d="M125 150C125 156.63 127.634 162.989 132.322 167.678C137.011 172.366 143.37 175 150 175C156.63 175 162.989 172.366 167.678 167.678C172.366 162.989 175 156.63 175 150H150H125Z" fill="#0078B5"/>
<path d="M100 0H200V100H100V0Z" fill="black"/>
<path d="M150 87L106.699 12H193.301L150 87Z" fill="#FDC91F"/>
<path d="M134 34C134 38.2435 135.686 42.3132 138.686 45.3137C141.687 48.3143 145.757 50 150 50C154.243 50 158.313 48.3143 161.314 45.3138C164.314 42.3132 166 38.2435 166 34H150H134Z" fill="#0078B5"/>
<path d="M200 250V200L230.943 230.943L250 250H200Z" fill="#0078B5"/>
<path d="M250 300V250L280.943 280.943L300 300H250Z" fill="#0078B5"/>
<path d="M300 250H250V225V200L280.943 230.943L300 250Z" fill="#0078B5"/>
<path d="M300 200V250L269.057 219.057L250 200H300Z" fill="#F25230"/>
<path d="M250 200V250L219.057 219.057L200 200H250Z" fill="#F35131"/>
<path d="M300 250V300L269.057 269.057L250 250H300Z" fill="#F35131"/>
<path d="M250 250V300L219.057 269.057L200 250H250Z" fill="#F35131"/>
<path d="M200 300V250L230.943 280.943L250 300H200Z" fill="#0078B5"/>
<path d="M300 400C300 386.868 297.413 373.864 292.388 361.732C287.362 349.599 279.997 338.575 270.711 329.289C261.425 320.003 250.401 312.638 238.268 307.612C226.136 302.587 213.132 300 200 300V400H300Z" fill="#FDC91F"/>
<path d="M271 400C271 390.676 269.164 381.444 265.595 372.829C262.027 364.215 256.798 356.388 250.205 349.795C243.612 343.202 235.785 337.973 227.171 334.405C218.556 330.836 209.324 329 200 329V400H271Z" fill="white"/>
<path d="M243 399.5C243 393.919 241.888 388.392 239.727 383.236C237.566 378.08 234.399 373.394 230.406 369.448C226.413 365.501 221.672 362.371 216.455 360.235C211.238 358.099 205.647 357 200 357V399.5H243Z" fill="#0078B5"/>
<path d="M400 300H300V400H400V300Z" fill="#F35131"/>
<path d="M375 350C375 343.37 372.366 337.011 367.678 332.322C362.989 327.634 356.63 325 350 325C343.37 325 337.011 327.634 332.322 332.322C327.634 337.011 325 343.37 325 350H350H375Z" fill="white"/>
<path d="M325 350C325 356.63 327.634 362.989 332.322 367.678C337.011 372.366 343.37 375 350 375C356.63 375 362.989 372.366 367.678 367.678C372.366 362.989 375 356.63 375 350H350H325Z" fill="#0078B5"/>
<path d="M300 200H400V300H300V200Z" fill="black"/>
<path d="M350 287L306.699 212H393.301L350 287Z" fill="#FDC91F"/>
<path d="M334 234C334 238.244 335.686 242.313 338.686 245.314C341.687 248.314 345.757 250 350 250C354.243 250 358.313 248.314 361.314 245.314C364.314 242.313 366 238.244 366 234H350H334Z" fill="#0078B5"/>
<path d="M200 649V599L230.943 629.943L250 649H200Z" fill="#0078B5"/>
<path d="M250 699V649L280.943 679.943L300 699H250Z" fill="#0078B5"/>
<path d="M300 649H250V624V599L280.943 629.943L300 649Z" fill="#0078B5"/>
<path d="M300 599V649L269.057 618.057L250 599H300Z" fill="#F25230"/>
<path d="M250 599V649L219.057 618.057L200 599H250Z" fill="#F35131"/>
<path d="M300 649V699L269.057 668.057L250 649H300Z" fill="#F35131"/>
<path d="M250 649V699L219.057 668.057L200 649H250Z" fill="#F35131"/>
<path d="M200 699V649L230.943 679.943L250 699H200Z" fill="#0078B5"/>
<path d="M300 799C300 785.868 297.413 772.864 292.388 760.732C287.362 748.599 279.997 737.575 270.711 728.289C261.425 719.003 250.401 711.638 238.268 706.612C226.136 701.587 213.132 699 200 699V799H300Z" fill="#FDC91F"/>
<path d="M271 799C271 789.676 269.164 780.444 265.595 771.829C262.027 763.215 256.798 755.388 250.205 748.795C243.612 742.202 235.785 736.973 227.171 733.405C218.556 729.836 209.324 728 200 728V799H271Z" fill="white"/>
<path d="M243 798.5C243 792.919 241.888 787.392 239.727 782.236C237.566 777.08 234.399 772.394 230.406 768.448C226.413 764.501 221.672 761.371 216.455 759.235C211.238 757.099 205.647 756 200 756V798.5H243Z" fill="#0078B5"/>
<path d="M400 699H300V799H400V699Z" fill="#F35131"/>
<path d="M375 749C375 742.37 372.366 736.011 367.678 731.322C362.989 726.634 356.63 724 350 724C343.37 724 337.011 726.634 332.322 731.322C327.634 736.011 325 742.37 325 749H350H375Z" fill="white"/>
<path d="M325 749C325 755.63 327.634 761.989 332.322 766.678C337.011 771.366 343.37 774 350 774C356.63 774 362.989 771.366 367.678 766.678C372.366 761.989 375 755.63 375 749H350H325Z" fill="#0078B5"/>
<path d="M300 599H400V699H300V599Z" fill="black"/>
<path d="M350 686L306.699 611H393.301L350 686Z" fill="#FDC91F"/>
<path d="M334 633C334 637.244 335.686 641.313 338.686 644.314C341.687 647.314 345.757 649 350 649C354.243 649 358.313 647.314 361.314 644.314C364.314 641.313 366 637.244 366 633H350H334Z" fill="#0078B5"/>
<path d="M0 449V399L30.943 429.943L50 449H0Z" fill="#0078B5"/>
<path d="M50 499V449L80.943 479.943L100 499H50Z" fill="#0078B5"/>
<path d="M100 449H50V424V399L80.943 429.943L100 449Z" fill="#0078B5"/>
<path d="M100 399V449L69.057 418.057L50 399H100Z" fill="#F25230"/>
<path d="M50 399V449L19.057 418.057L0 399H50Z" fill="#F35131"/>
<path d="M100 449V499L69.057 468.057L50 449H100Z" fill="#F35131"/>
<path d="M50 449V499L19.057 468.057L0 449H50Z" fill="#F35131"/>
<path d="M0 499V449L30.943 479.943L50 499H0Z" fill="#0078B5"/>
<path d="M100 599C100 585.868 97.413 572.864 92.388 560.732C87.362 548.599 79.997 537.575 70.711 528.289C61.425 519.003 50.401 511.638 38.268 506.612C26.136 501.587 13.132 499 0 499V599H100Z" fill="#FDC91F"/>
<path d="M71 599C71 589.676 69.164 580.444 65.595 571.829C62.027 563.215 56.798 555.388 50.205 548.795C43.612 542.202 35.785 536.973 27.171 533.405C18.556 529.836 9.324 528 0 528V599H71Z" fill="white"/>
<path d="M43 598.5C43 592.919 41.888 587.392 39.727 582.236C37.566 577.08 34.399 572.394 30.406 568.448C26.413 564.501 21.672 561.371 16.455 559.235C11.238 557.099 5.647 556 0 556V598.5H43Z" fill="#0078B5"/>
<path d="M200 499H100V599H200V499Z" fill="#F35131"/>
<path d="M175 549C175 542.37 172.366 536.011 167.678 531.322C162.989 526.634 156.63 524 150 524C143.37 524 137.011 526.634 132.322 531.322C127.634 536.011 125 542.37 125 549H150H175Z" fill="white"/>
<path d="M125 549C125 555.63 127.634 561.989 132.322 566.678C137.011 571.366 143.37 574 150 574C156.63 574 162.989 571.366 167.678 566.678C172.366 561.989 175 555.63 175 549H150H125Z" fill="#0078B5"/>
<path d="M100 399H200V499H100V399Z" fill="black"/>
<path d="M150 486L106.699 411H193.301L150 486Z" fill="#FDC91F"/>
<path d="M134 433C134 437.244 135.686 441.313 138.686 444.314C141.687 447.314 145.757 449 150 449C154.243 449 158.313 447.314 161.314 444.314C164.314 441.313 166 437.244 166 433H150H134Z" fill="#0078B5"/>
</svg>
