<svg width="100%" height="100%" viewBox="0 0 761 1102" fill="none" xmlns="http://www.w3.org/2000/svg">
<g clip-path="url(#clip0_1_28)">
<path d="M869 804L682.325 1059.2" stroke="black" stroke-width="50"/>
<path d="M125.147 519.493L64.5267 602.93" stroke="black" stroke-width="50"/>
<path d="M239.622 523.555L141.383 658.769" stroke="black" stroke-width="50"/>
<line x1="353.814" y1="526.306" x2="213.033" y2="718.372" stroke="black" stroke-width="50"/>
<line x1="714.277" y1="523.549" x2="448.519" y2="889.333" stroke="black" stroke-width="50"/>
<path d="M805.652 727.835L609.514 1006.3" stroke="black" stroke-width="50"/>
<path d="M770.27 614.91L528.612 947.524" stroke="black" stroke-width="50"/>
<path d="M595.1 525.959L375.189 828.639" stroke="black" stroke-width="50"/>
<path d="M475.774 525.17L293.188 776.478" stroke="black" stroke-width="50"/>
<path d="M810 540L528.612 947.524" stroke="black" stroke-width="50"/>
<path d="M0 0V559L761 0H0Z" fill="#FDC91F"/>
<path d="M758.628 1114.13L5.35547 1120.58L0.650513 555.789L758.628 1114.13Z" fill="#0078B5" stroke="black"/>
<path d="M761 559H0L761 1V559Z" fill="#F25230"/>
<g filter="url(#filter0_d_1_28)">
<path d="M290.029 162.045C222.215 211.586 208.451 304.842 259.287 370.34L504.864 190.938C454.028 125.441 357.843 112.505 290.029 162.045Z" fill="white"/>
</g>
<g filter="url(#filter1_d_1_28)">
<path d="M474.277 397.724C541.908 347.948 555.326 254.646 504.246 189.327L259.332 369.58C310.411 434.898 406.645 447.499 474.277 397.724Z" fill="black"/>
</g>
</g>
<defs>
<filter id="filter0_d_1_28" x="224.608" y="131.934" width="284.257" height="246.405" filterUnits="userSpaceOnUse" color-interpolation-filters="sRGB">
<feFlood flood-opacity="0" result="BackgroundImageFix"/>
<feColorMatrix in="SourceAlpha" type="matrix" values="0 0 0 0 0 0 0 0 0 0 0 0 0 0 0 0 0 0 127 0" result="hardAlpha"/>
<feOffset dy="4"/>
<feGaussianBlur stdDeviation="2"/>
<feComposite in2="hardAlpha" operator="out"/>
<feColorMatrix type="matrix" values="0 0 0 0 0 0 0 0 0 0 0 0 0 0 0 0 0 0 0.25 0"/>
<feBlend mode="normal" in2="BackgroundImageFix" result="effect1_dropShadow_1_28"/>
<feBlend mode="normal" in="SourceGraphic" in2="effect1_dropShadow_1_28" result="shape"/>
</filter>
<filter id="filter1_d_1_28" x="255.332" y="189.327" width="283.925" height="246.831" filterUnits="userSpaceOnUse" color-interpolation-filters="sRGB">
<feFlood flood-opacity="0" result="BackgroundImageFix"/>
<feColorMatrix in="SourceAlpha" type="matrix" values="0 0 0 0 0 0 0 0 0 0 0 0 0 0 0 0 0 0 127 0" result="hardAlpha"/>
<feOffset dy="4"/>
<feGaussianBlur stdDeviation="2"/>
<feComposite in2="hardAlpha" operator="out"/>
<feColorMatrix type="matrix" values="0 0 0 0 0 0 0 0 0 0 0 0 0 0 0 0 0 0 0.25 0"/>
<feBlend mode="normal" in2="BackgroundImageFix" result="effect1_dropShadow_1_28"/>
<feBlend mode="normal" in="SourceGraphic" in2="effect1_dropShadow_1_28" result="shape"/>
</filter>
<clipPath id="clip0_1_28">
<rect width="761" height="1102" fill="white"/>
</clipPath>
</defs>
</svg>